<mxfile host="app.diagrams.net" modified="2022-09-07T07:26:45.609Z" agent="5.0 (Windows NT 10.0; Win64; x64) AppleWebKit/537.36 (KHTML, like Gecko) Chrome/105.0.0.0 Safari/537.36 Edg/105.0.1343.27" etag="NmUuWqIb6upmM_A5IxEC" version="20.2.8" type="github">
  <diagram id="InsBf3LnIZB6c3mvLVU5" name="Page-1">
    <mxGraphModel dx="1422" dy="794" grid="1" gridSize="10" guides="1" tooltips="1" connect="1" arrows="1" fold="1" page="1" pageScale="1" pageWidth="850" pageHeight="1100" math="0" shadow="0">
      <root>
        <mxCell id="0" />
        <mxCell id="1" parent="0" />
        <mxCell id="d7sLVXipK0veU-5f7pIK-1" style="edgeStyle=orthogonalEdgeStyle;rounded=0;orthogonalLoop=1;jettySize=auto;html=1;entryX=0.5;entryY=0;entryDx=0;entryDy=0;" parent="1" source="d7sLVXipK0veU-5f7pIK-2" target="d7sLVXipK0veU-5f7pIK-3" edge="1">
          <mxGeometry relative="1" as="geometry" />
        </mxCell>
        <mxCell id="d7sLVXipK0veU-5f7pIK-2" value="Components" style="rounded=1;whiteSpace=wrap;html=1;" parent="1" vertex="1">
          <mxGeometry x="165" y="60" width="200" height="120" as="geometry" />
        </mxCell>
        <mxCell id="d7sLVXipK0veU-5f7pIK-3" value="Validate" style="rhombus;whiteSpace=wrap;html=1;" parent="1" vertex="1">
          <mxGeometry x="205" y="260" width="120" height="80" as="geometry" />
        </mxCell>
        <mxCell id="d7sLVXipK0veU-5f7pIK-4" value="" style="endArrow=none;html=1;rounded=0;entryX=0;entryY=0.5;entryDx=0;entryDy=0;" parent="1" target="d7sLVXipK0veU-5f7pIK-3" edge="1">
          <mxGeometry width="50" height="50" relative="1" as="geometry">
            <mxPoint x="85" y="300" as="sourcePoint" />
            <mxPoint x="225" y="300" as="targetPoint" />
          </mxGeometry>
        </mxCell>
        <mxCell id="d7sLVXipK0veU-5f7pIK-5" value="" style="endArrow=none;html=1;rounded=0;" parent="1" edge="1">
          <mxGeometry width="50" height="50" relative="1" as="geometry">
            <mxPoint x="85" y="140" as="sourcePoint" />
            <mxPoint x="85" y="300" as="targetPoint" />
          </mxGeometry>
        </mxCell>
        <mxCell id="d7sLVXipK0veU-5f7pIK-6" value="" style="endArrow=classic;html=1;rounded=0;" parent="1" edge="1">
          <mxGeometry width="50" height="50" relative="1" as="geometry">
            <mxPoint x="85" y="140" as="sourcePoint" />
            <mxPoint x="165" y="140" as="targetPoint" />
          </mxGeometry>
        </mxCell>
        <mxCell id="d7sLVXipK0veU-5f7pIK-7" value="Failure" style="text;html=1;align=center;verticalAlign=middle;resizable=0;points=[];autosize=1;strokeColor=none;fillColor=none;" parent="1" vertex="1">
          <mxGeometry x="85" y="210" width="60" height="30" as="geometry" />
        </mxCell>
        <mxCell id="d7sLVXipK0veU-5f7pIK-8" value="Redux-saga" style="rounded=1;whiteSpace=wrap;html=1;" parent="1" vertex="1">
          <mxGeometry x="165" y="540" width="200" height="60" as="geometry" />
        </mxCell>
        <mxCell id="d7sLVXipK0veU-5f7pIK-9" value="Pass" style="text;html=1;align=center;verticalAlign=middle;resizable=0;points=[];autosize=1;strokeColor=none;fillColor=none;" parent="1" vertex="1">
          <mxGeometry x="215" y="350" width="50" height="30" as="geometry" />
        </mxCell>
        <mxCell id="d7sLVXipK0veU-5f7pIK-10" value="APIs" style="rounded=1;whiteSpace=wrap;html=1;" parent="1" vertex="1">
          <mxGeometry x="565" y="540" width="200" height="60" as="geometry" />
        </mxCell>
        <mxCell id="d7sLVXipK0veU-5f7pIK-11" value="" style="endArrow=classic;html=1;rounded=0;exitX=1;exitY=0.25;exitDx=0;exitDy=0;entryX=0;entryY=0.25;entryDx=0;entryDy=0;" parent="1" source="d7sLVXipK0veU-5f7pIK-8" target="d7sLVXipK0veU-5f7pIK-10" edge="1">
          <mxGeometry width="50" height="50" relative="1" as="geometry">
            <mxPoint x="245" y="530" as="sourcePoint" />
            <mxPoint x="295" y="480" as="targetPoint" />
          </mxGeometry>
        </mxCell>
        <mxCell id="d7sLVXipK0veU-5f7pIK-12" value="" style="endArrow=classic;html=1;rounded=0;exitX=-0.012;exitY=0.606;exitDx=0;exitDy=0;exitPerimeter=0;entryX=1.008;entryY=0.619;entryDx=0;entryDy=0;entryPerimeter=0;" parent="1" source="d7sLVXipK0veU-5f7pIK-10" target="d7sLVXipK0veU-5f7pIK-8" edge="1">
          <mxGeometry width="50" height="50" relative="1" as="geometry">
            <mxPoint x="245" y="530" as="sourcePoint" />
            <mxPoint x="295" y="480" as="targetPoint" />
          </mxGeometry>
        </mxCell>
        <mxCell id="d7sLVXipK0veU-5f7pIK-13" value="Sends" style="text;html=1;align=center;verticalAlign=middle;resizable=0;points=[];autosize=1;strokeColor=none;fillColor=none;rotation=0;" parent="1" vertex="1">
          <mxGeometry x="430" y="535" width="60" height="30" as="geometry" />
        </mxCell>
        <mxCell id="d7sLVXipK0veU-5f7pIK-14" value="Receives" style="text;html=1;align=center;verticalAlign=middle;resizable=0;points=[];autosize=1;strokeColor=none;fillColor=none;" parent="1" vertex="1">
          <mxGeometry x="425" y="570" width="70" height="30" as="geometry" />
        </mxCell>
        <mxCell id="d7sLVXipK0veU-5f7pIK-15" value="Dispatch action" style="text;html=1;align=center;verticalAlign=middle;resizable=0;points=[];autosize=1;strokeColor=none;fillColor=none;" parent="1" vertex="1">
          <mxGeometry x="265" y="350" width="110" height="30" as="geometry" />
        </mxCell>
        <mxCell id="d7sLVXipK0veU-5f7pIK-16" style="edgeStyle=orthogonalEdgeStyle;rounded=0;orthogonalLoop=1;jettySize=auto;html=1;exitX=0.5;exitY=1;exitDx=0;exitDy=0;entryX=0.5;entryY=0;entryDx=0;entryDy=0;" parent="1" source="d7sLVXipK0veU-5f7pIK-17" target="d7sLVXipK0veU-5f7pIK-24" edge="1">
          <mxGeometry relative="1" as="geometry" />
        </mxCell>
        <mxCell id="d7sLVXipK0veU-5f7pIK-17" value="" style="rounded=1;whiteSpace=wrap;html=1;" parent="1" vertex="1">
          <mxGeometry x="165" y="690" width="200" height="220" as="geometry" />
        </mxCell>
        <mxCell id="d7sLVXipK0veU-5f7pIK-18" style="edgeStyle=orthogonalEdgeStyle;rounded=0;orthogonalLoop=1;jettySize=auto;html=1;exitX=0.5;exitY=1;exitDx=0;exitDy=0;entryX=0.5;entryY=0;entryDx=0;entryDy=0;" parent="1" source="d7sLVXipK0veU-5f7pIK-19" target="d7sLVXipK0veU-5f7pIK-20" edge="1">
          <mxGeometry relative="1" as="geometry" />
        </mxCell>
        <mxCell id="d7sLVXipK0veU-5f7pIK-19" value="Reducer" style="rounded=1;whiteSpace=wrap;html=1;" parent="1" vertex="1">
          <mxGeometry x="205" y="730" width="120" height="60" as="geometry" />
        </mxCell>
        <mxCell id="d7sLVXipK0veU-5f7pIK-20" value="State" style="rounded=1;whiteSpace=wrap;html=1;" parent="1" vertex="1">
          <mxGeometry x="205" y="830" width="120" height="60" as="geometry" />
        </mxCell>
        <mxCell id="d7sLVXipK0veU-5f7pIK-21" value="Store" style="text;html=1;strokeColor=none;fillColor=none;align=center;verticalAlign=middle;whiteSpace=wrap;rounded=0;" parent="1" vertex="1">
          <mxGeometry x="175" y="690" width="60" height="30" as="geometry" />
        </mxCell>
        <mxCell id="d7sLVXipK0veU-5f7pIK-22" value="" style="endArrow=classic;html=1;rounded=0;exitX=0.5;exitY=1;exitDx=0;exitDy=0;" parent="1" source="d7sLVXipK0veU-5f7pIK-8" target="d7sLVXipK0veU-5f7pIK-19" edge="1">
          <mxGeometry width="50" height="50" relative="1" as="geometry">
            <mxPoint x="245" y="730" as="sourcePoint" />
            <mxPoint x="295" y="680" as="targetPoint" />
          </mxGeometry>
        </mxCell>
        <mxCell id="d7sLVXipK0veU-5f7pIK-23" value="Updates" style="text;html=1;strokeColor=none;fillColor=none;align=center;verticalAlign=middle;whiteSpace=wrap;rounded=0;" parent="1" vertex="1">
          <mxGeometry x="265" y="800" width="60" height="30" as="geometry" />
        </mxCell>
        <mxCell id="d7sLVXipK0veU-5f7pIK-24" value="End" style="rounded=1;whiteSpace=wrap;html=1;" parent="1" vertex="1">
          <mxGeometry x="165" y="980" width="200" height="60" as="geometry" />
        </mxCell>
        <mxCell id="d7sLVXipK0veU-5f7pIK-25" value="Dispatch action" style="text;html=1;align=center;verticalAlign=middle;resizable=0;points=[];autosize=1;strokeColor=none;fillColor=none;" parent="1" vertex="1">
          <mxGeometry x="265" y="630" width="110" height="30" as="geometry" />
        </mxCell>
        <mxCell id="d7sLVXipK0veU-5f7pIK-26" style="edgeStyle=orthogonalEdgeStyle;rounded=0;orthogonalLoop=1;jettySize=auto;html=1;entryX=0.5;entryY=0;entryDx=0;entryDy=0;" parent="1" source="d7sLVXipK0veU-5f7pIK-27" target="d7sLVXipK0veU-5f7pIK-8" edge="1">
          <mxGeometry relative="1" as="geometry" />
        </mxCell>
        <mxCell id="d7sLVXipK0veU-5f7pIK-27" value="Action" style="rounded=1;whiteSpace=wrap;html=1;" parent="1" vertex="1">
          <mxGeometry x="165" y="420" width="200" height="60" as="geometry" />
        </mxCell>
        <mxCell id="d7sLVXipK0veU-5f7pIK-28" value="" style="endArrow=classic;html=1;rounded=0;exitX=0.5;exitY=1;exitDx=0;exitDy=0;" parent="1" source="d7sLVXipK0veU-5f7pIK-3" target="d7sLVXipK0veU-5f7pIK-27" edge="1">
          <mxGeometry width="50" height="50" relative="1" as="geometry">
            <mxPoint x="175" y="550" as="sourcePoint" />
            <mxPoint x="225" y="500" as="targetPoint" />
          </mxGeometry>
        </mxCell>
        <mxCell id="d7sLVXipK0veU-5f7pIK-29" value="Dispatch action" style="text;html=1;align=center;verticalAlign=middle;resizable=0;points=[];autosize=1;strokeColor=none;fillColor=none;" parent="1" vertex="1">
          <mxGeometry x="265" y="490" width="110" height="30" as="geometry" />
        </mxCell>
      </root>
    </mxGraphModel>
  </diagram>
</mxfile>
